<?xml version="1.0" encoding="utf-8"?>
<!-- Generator: Adobe Illustrator 26.0.0, SVG Export Plug-In . SVG Version: 6.00 Build 0)  -->
<svg version="1.1" id="Layer_3" xmlns="http://www.w3.org/2000/svg" xmlns:xlink="http://www.w3.org/1999/xlink" x="0px" y="0px"
	 viewBox="0 0 380 280" style="enable-background:new 0 0 380 280;" xml:space="preserve">
<style type="text/css">
	.st0{opacity:0.9;}
	.st1{fill:#808384;}
</style>
<g class="st0">
	<path class="st1" d="M230,99.2c-1.3-1.7-3.1-3-5.2-3.7c-2.3-0.5-4.6-0.2-6.7,0.8c-4.2,2-6.9,6.4-9.5,9.9s-53.2,71.9-54.4,72.3
		c-0.9,0.3-1.8,0.3-2.7,0c-1.8-0.7-18.4-23.1-20.6-26.1c-0.3-0.3-1.3-1.7-1.5-1.8c-2.5-2.8-6-5.2-9.9-4.9c-2,0.2-3.9,1-5.5,2.3
		l-1.8,1.5c-0.8,1-54.4,72.9-55.4,75.1c-0.8,1.2-0.8,2.7-0.2,4c1,0.9,2.2,1.3,3.5,1.3c3,0.2,241.9,0.2,249.1,0.2
		c2.6,0,5.3-0.1,7.9-0.3c1-0.1,1.9-0.4,2.8-0.8c0.9-0.4,1.6-1.2,2-2.2c0.7-2-0.7-3.8-1.8-5.4S233.5,103.4,230,99.2z"/>
	<circle class="st1" cx="82.1" cy="85.1" r="23.3"/>
	<path class="st1" d="M324,29.4H56c-14,0.1-25.2,11.3-25.3,25.3v170.6c0.1,14,11.3,25.2,25.3,25.3h268c14-0.1,25.2-11.3,25.3-25.3
		V54.7C349.1,40.8,337.9,29.6,324,29.4z M337.9,66.2v157.3c0,8.7-7,15.7-15.7,15.7h0H57.8c-8.7,0-15.7-7-15.7-15.7l0,0V56.7
		c0-8.7,7-15.7,15.7-15.7h264.3c8.7,0,15.7,7,15.7,15.7v0L337.9,66.2L337.9,66.2z"/>
</g>
</svg>
