<svg xmlns="http://www.w3.org/2000/svg" viewBox="0 0 537.46 126.58"><defs><style>.cls-1{fill:#6bb318;}.cls-2{fill:#1c1c1c;}.cls-3{fill:#1b1b1b;}.cls-4{fill:#6ab317;}.cls-5{fill:#777;}.cls-6{fill:#1d1d1d;}.cls-7{fill:#6ab216;}.cls-8{fill:#1a1a1a;}.cls-9{fill:#6bb319;}.cls-10{fill:#787878;}.cls-11{fill:#797979;}.cls-12{fill:#1e1e1e;}.cls-13{fill:#6bb317;}</style></defs><g id="Layer_2" data-name="Layer 2"><path class="cls-1" d="M33.67,40.35a50.29,50.29,0,0,1,24.69,6.73,10.46,10.46,0,0,1,4.43,4.8A45,45,0,0,1,67,68,43.5,43.5,0,0,1,62.2,91.42a7.35,7.35,0,0,1-2.7,2.94,43.85,43.85,0,0,1-16.84,6.46,53.76,53.76,0,0,1-8.08.85c-10,0-19.3-2.21-27.62-7.92a4.5,4.5,0,0,1-1.34-1.47A42.42,42.42,0,0,1,.23,73.86,43.12,43.12,0,0,1,5.52,50,4.92,4.92,0,0,1,7.1,48.28a43.78,43.78,0,0,1,17.77-7C27.78,40.85,30.73,40.66,33.67,40.35ZM6.61,59.2a174.78,174.78,0,0,1,54.12,0,44.65,44.65,0,0,0-3-9.18C43.39,42.35,22,43.11,9.53,50.1A42.45,42.45,0,0,0,6.61,59.2ZM11.05,89a4.68,4.68,0,0,0,4.64,4.65A4.79,4.79,0,0,0,20.38,89a4.73,4.73,0,0,0-4.74-4.69A4.65,4.65,0,0,0,11.05,89Zm0-11.59a4.69,4.69,0,0,0,4.57,4.72,4.8,4.8,0,0,0,4.76-4.7,4.73,4.73,0,0,0-4.68-4.64A4.65,4.65,0,0,0,11.05,77.37Zm24-10.8a4.7,4.7,0,0,0,4.6,4.69,4.82,4.82,0,0,0,4.71-4.64,4.65,4.65,0,0,0-4.72-4.68A4.54,4.54,0,0,0,35,66.57ZM15.71,61.94a4.57,4.57,0,0,0-4.66,4.58,4.71,4.71,0,0,0,4.69,4.74,4.85,4.85,0,0,0,4.64-4.71A4.68,4.68,0,0,0,15.71,61.94ZM23,66.52a4.64,4.64,0,0,0,4.55,4.72,4.69,4.69,0,0,0,4.76-4.69,4.62,4.62,0,0,0-4.66-4.61A4.55,4.55,0,0,0,23,66.52Zm0,22.42a4.67,4.67,0,0,0,4.61,4.67A4.79,4.79,0,0,0,32.36,89a4.73,4.73,0,0,0-4.72-4.71A4.63,4.63,0,0,0,23,88.94Zm0-11.5a4.67,4.67,0,0,0,4.64,4.65,4.81,4.81,0,0,0,4.68-4.66,4.73,4.73,0,0,0-4.75-4.68A4.63,4.63,0,0,0,23,77.44ZM51.7,61.94a4.65,4.65,0,1,0,4.56,4.67A4.57,4.57,0,0,0,51.7,61.94ZM35,77.36a4.63,4.63,0,0,0,4.55,4.72,4.67,4.67,0,1,0,.1-9.33A4.62,4.62,0,0,0,35,77.36Zm0,11.57a4.67,4.67,0,0,0,4.59,4.68,4.77,4.77,0,0,0,4.71-4.73,4.71,4.71,0,0,0-4.69-4.6A4.63,4.63,0,0,0,35,88.93ZM56.25,77.39a4.63,4.63,0,1,0-9.26,0,4.63,4.63,0,1,0,9.26,0Zm0,11.59a4.63,4.63,0,1,0-4.67,4.63A4.64,4.64,0,0,0,56.25,89Z" transform="translate(-0.14 0)"/><path class="cls-2" d="M87.3,91.22H76.2V50.75H86.82V55.9l.22.15c.35-.39.71-.76,1-1.17a13.62,13.62,0,0,1,8.17-4.82,18.23,18.23,0,0,1,10,.66,10.29,10.29,0,0,1,6.28,6.17A18.7,18.7,0,0,1,114,63.75c.08,9,.07,18.08.09,27.12a1.67,1.67,0,0,1-.07.31H102.85V90c0-7,0-14.07-.14-21.11a32.07,32.07,0,0,0-.47-5.36c-.56-3.1-2.32-4.67-5-4.8a25,25,0,0,0-4.06,0A5.53,5.53,0,0,0,88.85,62a13.15,13.15,0,0,0-1.45,6.11c-.07,5.92-.07,11.84-.1,17.76C87.29,87.58,87.3,89.34,87.3,91.22Z" transform="translate(-0.14 0)"/><path class="cls-2" d="M119.23,49.72h11.19c0,1.07,0,2.09,0,3.11.05,6.64.09,13.28.19,19.92a29.56,29.56,0,0,0,.48,4.88c.4,2.12,1.65,4.34,4.8,4.55a24.2,24.2,0,0,0,4.17,0,5.52,5.52,0,0,0,4.43-3.26,14.29,14.29,0,0,0,1.43-6.61c.05-7.12,0-14.24.06-21.35V49.77h11.13V90.18H146.46V84.63c-.45.52-.74.82-1,1.15-3,3.8-7.11,5.36-11.86,5.48a19,19,0,0,1-5.21-.6,11,11,0,0,1-8.12-7.84A26.05,26.05,0,0,1,119.17,75c0-8.32,0-16.64,0-25A2,2,0,0,1,119.23,49.72Z" transform="translate(-0.14 0)"/><path class="cls-3" d="M320.6,70.2a20,20,0,0,1-3.47,12.46A18.9,18.9,0,0,1,303.62,91a26.27,26.27,0,0,1-10.81-.63,18.06,18.06,0,0,1-12.39-11.21,24.09,24.09,0,0,1,.28-19,17.39,17.39,0,0,1,10.23-9.84C298,47.71,305,48,311.51,51.9c4.94,3,7.63,7.59,8.66,13.17A48.6,48.6,0,0,1,320.6,70.2ZM289.86,70c.19,1.74.24,3.51.6,5.21A9.3,9.3,0,0,0,302,82.61c3.28-.73,5.21-2.89,6.36-5.89a19.85,19.85,0,0,0,.87-9.08,15.77,15.77,0,0,0-1.58-5.85,7.75,7.75,0,0,0-4.47-4.09c-4.59-1.53-10.6-.17-12.55,6.26A25.56,25.56,0,0,0,289.86,70Z" transform="translate(-0.14 0)"/><path class="cls-3" d="M362.4,91.19H351.21V90c0-6.8,0-13.6-.1-20.4a45.66,45.66,0,0,0-.46-5.84c-.42-3-2-4.63-5-5a17.43,17.43,0,0,0-3.82,0,5.86,5.86,0,0,0-4.84,3.79,13.8,13.8,0,0,0-1.13,5.1c-.11,2.35-.14,4.71-.15,7.07,0,5.08,0,10.16,0,15.24v1.24H324.56V50.72h10.65v5.21l.21.1c.37-.4.75-.78,1.09-1.2a13.58,13.58,0,0,1,8.07-4.76,18.45,18.45,0,0,1,9.47.44,10.59,10.59,0,0,1,7.14,7,19.31,19.31,0,0,1,1.22,6.31c.06,9,0,18,.06,27A2.06,2.06,0,0,1,362.4,91.19Z" transform="translate(-0.14 0)"/><path class="cls-4" d="M383.47,51.11H396L402.86,61l6.92-9.91h12.48L409.12,70,423.86,91.2H411.37c-2.77-4-5.59-8-8.5-12.19l-8.5,12.19H381.88L396.61,70Z" transform="translate(-0.14 0)"/><path class="cls-3" d="M177.88,50.11H186V58h-7.93c-.06.73-.15,1.31-.15,1.9q.06,9.36.15,18.72a5.28,5.28,0,0,0,.14,1.18c.4,1.77,1.68,2.42,3.34,2.48,1,0,2,0,3-.08.52,0,1-.1,1.63-.16v8.71c-3.94.32-7.86.89-11.8,0-3.62-.83-6.3-2.71-7.16-6.5a18.51,18.51,0,0,1-.38-3.93c0-6.88,0-13.76,0-20.64V58.14h-6.52v-8H167V38.28h10.84Z" transform="translate(-0.14 0)"/><path class="cls-3" d="M259.41,82.06v8.71c-4.29.38-8.57,1-12.82-.27a8.17,8.17,0,0,1-6.19-6.31,16,16,0,0,1-.34-3.45c0-7.07,0-14.15-.05-21.22V58.1h-6.53v-8h6.76V38.3h10.83V50.05h8.07v8h-7.87c-.06.84-.15,1.55-.14,2.26,0,6.15.08,12.3.17,18.46,0,2.17.85,3.15,3,3.46a22.19,22.19,0,0,0,3.46,0C258.25,82.22,258.77,82.13,259.41,82.06Z" transform="translate(-0.14 0)"/><path class="cls-5" d="M481.16,91.43h-9.24q-2.06-4.79-4.16-9.71H449.19l-4.1,9.69h-9L453.7,52h9.88ZM458.53,58.64l-6.87,16.89h13.62C463,69.9,460.82,64.39,458.53,58.64Z" transform="translate(-0.14 0)"/><path class="cls-5" d="M493,76.29V91.38H484.9V52a8.18,8.18,0,0,1,.89-.08c8.11,0,16.23,0,24.34,0A14.51,14.51,0,0,1,515.6,53c3.89,1.6,5.82,4.68,6.42,8.69a13.73,13.73,0,0,1-.91,7.72A10.81,10.81,0,0,1,513,75.84a23.45,23.45,0,0,1-4.51.43c-4.67,0-9.35,0-14,0Zm0-6.25c.33,0,.56.06.79.06,4.36,0,8.71,0,13.07,0a13.9,13.9,0,0,0,2.73-.28c2.17-.44,3.71-1.61,4.08-3.94a14.91,14.91,0,0,0,.14-1.78c.13-3.68-2.31-5.92-6-6-4.63-.06-9.27,0-13.91,0-.3,0-.6.06-.93.09Z" transform="translate(-0.14 0)"/><path class="cls-2" d="M201,91.2H189.82V50.72h10.55v7l.21.1c.26-.41.52-.82.79-1.22A14.46,14.46,0,0,1,214,49.69a2.12,2.12,0,0,1,1.94.79v9.84l-2.71-.18c-4.35-.31-8.09.8-10.54,4.7a10.17,10.17,0,0,0-1.58,5.44c0,6.32,0,12.64,0,19C201.16,89.88,201.05,90.53,201,91.2Z" transform="translate(-0.14 0)"/><path class="cls-6" d="M230.13,91.19H218.8V50.92h11.33Z" transform="translate(-0.14 0)"/><path class="cls-7" d="M378.51,91.2H367.28V51h11.23Z" transform="translate(-0.14 0)"/><path class="cls-8" d="M263.11,50.9h11.21V91.17H263.11Z" transform="translate(-0.14 0)"/><path class="cls-9" d="M14.94,17.46c1.73.12,3.4.15,5,.35A23.56,23.56,0,0,1,27.42,20c5.22,2.56,7.73,6.82,7.87,12.56,0,.32,0,.64,0,1v1.22l.7-1.52c1.49-3.25,3.79-5.62,7.38-6.45,3.12-.71,6.07,0,9.05,1.24-1.11,3.74-2.78,7-6.09,9.22-2.67,1.76-5.6,1.85-8.75,1.15a16.12,16.12,0,0,1,3.92-6.69,11.26,11.26,0,0,1,6.84-3.36,7,7,0,0,0-4.25.47,18.65,18.65,0,0,0-7.8,5.79c-.46.54-.89,1.12-1.42,1.78-.12-.37-.22-.65-.3-.93-1.33-4.55-3.29-8.74-6.81-12a14.31,14.31,0,0,0-7-3.6,3.91,3.91,0,0,0-.48-.05h-.77C27.3,23.52,30.6,29.88,31,38.28c-1.2-.17-2.26-.24-3.29-.47-6.32-1.4-10.11-5.45-11.85-11.54A26.19,26.19,0,0,1,14.94,17.46Z" transform="translate(-0.14 0)"/><path class="cls-10" d="M528.41,51.9h8.17V91.39h-8.17Z" transform="translate(-0.14 0)"/><path class="cls-10" d="M411.33,6.1l2.94,11.38h.19c.94-3.76,1.87-7.52,2.83-11.38h3.5c.89,3.75,1.78,7.53,2.68,11.31,1.33-3.7,2.22-7.52,3.32-11.32h3.45c-1.62,5.21-3.22,10.33-4.83,15.49h-3.53q-1.39-5.68-2.82-11.44l-.2,0c-.92,3.78-1.84,7.56-2.77,11.4h-3.64c-1.56-5.09-3.13-10.2-4.73-15.45Z" transform="translate(-0.14 0)"/><path class="cls-5" d="M370.88,0c3.55,0,7-.11,10.48,0a6.22,6.22,0,0,1,5.42,2.76c1.62,2.61,1.25,7.13-1.33,8.88A7,7,0,0,1,381.66,13c-2,.06-3.92,0-5.87,0-.39,0-.78,0-1.29.06v8.47h-3.62Zm3.65,2.8V10.1c2.17,0,4.28.08,6.38,0A3.34,3.34,0,0,0,384,6.73c.08-1.91-.94-3.52-2.67-3.63C379.09,3,376.84,2.92,374.53,2.84Z" transform="translate(-0.14 0)"/><path class="cls-10" d="M508.43,19.59c0,.81-.07,1.31-.1,1.89h-3V.1h3.24V7.67a7.56,7.56,0,0,0,.64-.43c3.43-3,10.19-1.92,11.43,3.61a11.07,11.07,0,0,1-.81,8,5.57,5.57,0,0,1-5.08,3,16.15,16.15,0,0,1-2.87-.15A4.87,4.87,0,0,1,508.43,19.59Zm4.49-11.46a3.81,3.81,0,0,0-3.83,2.49,7.89,7.89,0,0,0,0,6.16,4.33,4.33,0,0,0,8.14-.33,7.78,7.78,0,0,0,.17-4.7A4.44,4.44,0,0,0,512.92,8.13Z" transform="translate(-0.14 0)"/><path class="cls-11" d="M492.45,21.51h-3c0-.54-.09-1.07-.14-1.69-1.93,2.37-4.44,2.4-7,1.83a6,6,0,0,1-4.66-5,11.94,11.94,0,0,1,.45-7.28A6.84,6.84,0,0,1,489.2,7.81V.09h3.25Zm-11.91-7.75a8,8,0,0,0,1,3.8,3.93,3.93,0,0,0,6.68.15,7.5,7.5,0,0,0,.57-7,4.06,4.06,0,0,0-7.59,0A25,25,0,0,0,480.54,13.76Z" transform="translate(-0.14 0)"/><path class="cls-11" d="M475.16,14.85H463.87a4,4,0,0,0,2.44,4.36c2.28.81,4.15,0,5.47-2.38h3.07c-.34,2.91-3.06,4.77-5.52,5a13.77,13.77,0,0,1-3.68-.19A6,6,0,0,1,460.73,17a9.88,9.88,0,0,1,.76-7.76A6.77,6.77,0,0,1,468,5.59a7,7,0,0,1,6.49,4.52A8.88,8.88,0,0,1,475.16,14.85Zm-3.54-2.16a4.43,4.43,0,0,0-2.07-4.06,3.36,3.36,0,0,0-3.82.09,4.46,4.46,0,0,0-2,4Z" transform="translate(-0.14 0)"/><path class="cls-11" d="M447,14.9H435.75a4.22,4.22,0,0,0,3.11,4.48c2.08.52,3.76-.32,4.91-2.5h3.11a4.66,4.66,0,0,1-1.27,2.77c-2.54,3.13-9.35,3.15-11.79-.42a9.15,9.15,0,0,1-1.46-6,9.7,9.7,0,0,1,1.33-4.29A7.28,7.28,0,0,1,446,9,7.91,7.91,0,0,1,447,14.9Zm-3.3-2.22c-.31-2.9-1.83-4.59-4-4.55s-3.75,1.76-3.94,4.55Z" transform="translate(-0.14 0)"/><path class="cls-10" d="M523.75,27.88c0-.31,0-.54,0-.77,0-.59,0-1.18,0-1.87l.76.13a3.1,3.1,0,0,0,3.46-3.88c-.06-.2-.14-.38-.21-.57l-5.19-14.1c-.08-.22-.13-.45-.22-.75H526q2,5.79,3.94,11.65l.2,0c1.27-3.86,2.54-7.73,3.83-11.64h3.51c-.19.59-.36,1.11-.54,1.62-1.84,5.17-3.67,10.34-5.53,15.5a18.41,18.41,0,0,1-1.19,2.59,4.07,4.07,0,0,1-3.77,2.11Z" transform="translate(-0.14 0)"/><path class="cls-10" d="M397.86,21.9c-4.29.17-7.32-2.68-7.57-7.45a12.4,12.4,0,0,1,.37-3.54c1-4,4.48-5.57,8-5.28,5.56.45,7.25,4.93,6.9,9.21a9.78,9.78,0,0,1-.54,2.44A6.81,6.81,0,0,1,397.86,21.9Zm-4.23-8a6.63,6.63,0,0,0,.89,3.47,3.8,3.8,0,0,0,6.74.11,7.15,7.15,0,0,0,0-7.41,3.82,3.82,0,0,0-6.7-.12A6.86,6.86,0,0,0,393.63,13.94Z" transform="translate(-0.14 0)"/><path class="cls-12" d="M230.14,35.42v9.4H218.8v-9.4Z" transform="translate(-0.14 0)"/><path class="cls-13" d="M378.52,44.85H367.27V35.42h11.25Z" transform="translate(-0.14 0)"/><path class="cls-3" d="M274.29,44.86H263.1V35.42h11.19Z" transform="translate(-0.14 0)"/><path class="cls-10" d="M453.14,21.57h-3.31V6.06h3V8.63c2.1-2.79,3.11-3.3,5.93-3V8.84a9.88,9.88,0,0,0-1.87-.07,4.5,4.5,0,0,0-3.73,4.6c-.06,2.31,0,4.63,0,7Z" transform="translate(-0.14 0)"/></g><g id="Layer_3" data-name="Layer 3"><path class="cls-5" d="M337.67,106.3l-6.05,15.8h2.45l1.45-3.92h6.82l1.43,3.92h2.57l-6-15.8Zm-1.43,9.92,2.71-7.28,2.66,7.28Z" transform="translate(-0.14 0)"/><path class="cls-5" d="M360.44,113.38l-2.33-.46c-1.47-.31-2.77-.83-2.77-2.33s1.12-2.57,3.17-2.57a3.31,3.31,0,0,1,3.47,3.21h2.47c-.2-3.15-2.69-5.15-6-5.15s-5.61,2-5.61,4.66,2,3.81,4.24,4.25l2.29.44c1.83.4,2.68,1.06,2.68,2.38,0,1.62-1.49,2.57-3.49,2.57-2.42,0-3.7-1.3-3.81-3.3h-2.46c.19,3.15,2.5,5.24,6.31,5.24s6-2.09,6-4.84C364.67,115.12,363.15,113.93,360.44,113.38Z" transform="translate(-0.14 0)"/><polygon class="cls-5" points="371.32 119.33 367.94 110.44 365.54 110.44 370.14 121.94 368.46 126.34 370.88 126.34 376.71 110.44 374.47 110.44 371.32 119.33"/><path class="cls-5" d="M384.22,110.22a4.29,4.29,0,0,0-3.71,2.15v-1.93h-2.07V122.1h2.22v-6.58c0-2.07,1.28-3.35,2.79-3.35S386,113.3,386,115.3v6.8h2.23v-7.55C388.21,111.76,386.62,110.22,384.22,110.22Z" transform="translate(-0.14 0)"/><path class="cls-5" d="M399.23,112.44a4.22,4.22,0,0,0-3.74-2.22c-3.15,0-5.17,2.5-5.17,6s2,6,5.17,6a4.37,4.37,0,0,0,3.89-2.31v2.09h2.07V106.3h-2.22Zm-3.3,7.9c-1.94,0-3.3-1.48-3.3-4.07s1.36-4.1,3.3-4.1,3.3,1.43,3.3,4S397.82,120.34,395.93,120.34Z" transform="translate(-0.14 0)"/><path class="cls-5" d="M405.63,106.26a1.48,1.48,0,1,0,1.61,1.47A1.48,1.48,0,0,0,405.63,106.26Z" transform="translate(-0.14 0)"/><rect class="cls-5" x="404.39" y="110.44" width="2.22" height="11.66"/><path class="cls-5" d="M417.69,112.5a4.14,4.14,0,0,0-3.79-2.28c-2.92,0-4.9,2.33-4.9,5.8s2.06,5.83,5,5.83a3.8,3.8,0,0,0,3.56-2.22v2.11a2.74,2.74,0,0,1-3.06,3.08c-1.8,0-2.86-.88-3-2.5h-2.15c.13,2.64,2.11,4.26,5.17,4.26,3.3,0,5.25-1.82,5.25-4.88V110.44h-2.06Zm-3.33,7.42c-1.93,0-3.12-1.48-3.12-3.9s1.21-3.89,3.12-3.89,3.17,1.54,3.17,4S416.26,119.92,414.36,119.92Z" transform="translate(-0.14 0)"/><path class="cls-5" d="M427.72,110.22a6.06,6.06,0,1,0,5.72,6A5.73,5.73,0,0,0,427.72,110.22Zm0,10.14c-1.92,0-3.41-1.54-3.41-4.09s1.49-4.07,3.41-4.07,3.43,1.51,3.43,4.07S429.63,120.36,427.72,120.36Z" transform="translate(-0.14 0)"/><path class="cls-5" d="M447.39,108.15a5.12,5.12,0,0,1,5.12,4.35h2.58a7.6,7.6,0,0,0-7.73-6.53,8.24,8.24,0,0,0,0,16.46,7.6,7.6,0,0,0,7.73-6.56h-2.58a5.15,5.15,0,0,1-5.12,4.38c-3.13,0-5.33-2.53-5.33-6.07S444.26,108.15,447.39,108.15Z" transform="translate(-0.14 0)"/><path class="cls-5" d="M462.3,110.22a6.06,6.06,0,1,0,5.72,6A5.73,5.73,0,0,0,462.3,110.22Zm0,10.14c-1.91,0-3.41-1.54-3.41-4.09s1.5-4.07,3.41-4.07,3.43,1.51,3.43,4.07S464.21,120.36,462.3,120.36Z" transform="translate(-0.14 0)"/><path class="cls-5" d="M483.49,110.22a4.31,4.31,0,0,0-3.94,2.42,3.53,3.53,0,0,0-3.54-2.42,4.13,4.13,0,0,0-3.66,2.15v-1.93h-2.06V122.1h2.22v-6.69c0-2,1.21-3.24,2.75-3.24s2.48,1.15,2.48,3.08v6.85H480v-6.69c0-2,1.23-3.24,2.75-3.24s2.48,1.15,2.48,3.08v6.85h2.22v-7.55C487.42,111.78,485.88,110.22,483.49,110.22Z" transform="translate(-0.14 0)"/><path class="cls-5" d="M496.38,110.22a4.41,4.41,0,0,0-3.92,2.35v-2.13h-2.07v15.9h2.23v-6.22a4.27,4.27,0,0,0,3.76,2.2c3.12,0,5.15-2.53,5.15-6S499.48,110.22,496.38,110.22Zm-.46,10.12c-1.87,0-3.3-1.5-3.3-4.07s1.45-4.1,3.3-4.1,3.3,1.48,3.3,4.1S497.83,120.34,495.92,120.34Z" transform="translate(-0.14 0)"/><path class="cls-5" d="M508.13,110.22a4.39,4.39,0,0,0-4.71,4.35h2a2.48,2.48,0,0,1,2.69-2.59,2.3,2.3,0,0,1,2.44,2.61v.86a16.83,16.83,0,0,0-2.18-.13c-3.48,0-5.3,1.19-5.3,3.48,0,2.13,1.58,3.52,4,3.52a4,4,0,0,0,3.74-2v1.81h1.85v-7.48C512.68,111.84,511,110.22,508.13,110.22Zm2.44,7.56a2.8,2.8,0,0,1-3,3c-1.43,0-2.33-.79-2.33-2,0-1.36,1.1-2,3.32-2a15.22,15.22,0,0,1,2.05.13Z" transform="translate(-0.14 0)"/><path class="cls-5" d="M521.44,110.22a4.29,4.29,0,0,0-3.72,2.15v-1.93h-2.07V122.1h2.22v-6.58c0-2.07,1.28-3.35,2.8-3.35s2.53,1.13,2.53,3.13v6.8h2.22v-7.55C525.42,111.76,523.83,110.22,521.44,110.22Z" transform="translate(-0.14 0)"/><polygon class="cls-5" points="535.22 110.44 532.07 119.33 528.69 110.44 526.29 110.44 530.89 121.94 529.22 126.34 531.63 126.34 537.46 110.44 535.22 110.44"/></g></svg>